<?xml version="1.0" encoding="UTF-8" standalone="no"?>
<!DOCTYPE svg PUBLIC "-//W3C//DTD SVG 1.1//EN" "http://www.w3.org/Graphics/SVG/1.1/DTD/svg11.dtd">
<svg width="100%" height="100%" viewBox="0 0 123 102" version="1.1" xmlns="http://www.w3.org/2000/svg" xmlns:xlink="http://www.w3.org/1999/xlink" xml:space="preserve" xmlns:serif="http://www.serif.com/" style="fill-rule:evenodd;clip-rule:evenodd;stroke-linejoin:round;stroke-miterlimit:2;">
    <g transform="matrix(0.812393,0,0,0.812393,11.5265,9.51353)">
        <path d="M103.62,19.48L103.62,73.78C96.33,73.2 89.29,74.36 82.44,76.8C76.43,78.94 70.58,82.08 64.86,85.9L64.86,22.56C68.54,16.7 74.2,12.61 80.76,10.12C87.78,7.46 95.82,6.6 103.62,7.34L103.62,18.46C103.59,18.63 103.58,18.8 103.58,18.97C103.58,19.15 103.6,19.32 103.62,19.48Z" style="fill:white;"/>
        <path d="M58.12,85.25C53.15,81.64 47.73,78.91 42.01,77.05C34.82,74.7 27.18,73.71 19.37,73.99L19.75,7.18C26.91,6.16 35.12,6.79 42.43,9.59C48.88,12.06 54.59,16.23 58.12,22.46L58.12,85.25Z" style="fill:white;"/>
        <path d="M12.64,77.27L12.95,22.35L6.75,22.35L6.75,92.23C15.27,90.03 23.82,88.63 32.43,88.57C40.38,88.52 48.33,89.63 56.3,92.33C51.35,88.32 45.83,85.37 39.94,83.45C32.52,81.03 24.5,80.23 16.28,80.93C14.42,81.08 12.8,79.7 12.64,77.85C12.62,77.65 12.62,77.46 12.64,77.27ZM103.62,19.48C103.6,19.32 103.58,19.15 103.58,18.97C103.58,18.8 103.59,18.63 103.62,18.46L103.62,7.34C95.82,6.6 87.78,7.46 80.76,10.12C74.2,12.61 68.54,16.7 64.86,22.56L64.86,85.9C70.58,82.08 76.43,78.94 82.44,76.8C89.29,74.36 96.33,73.2 103.62,73.78L103.62,19.48ZM110.36,15.6L119.51,15.6C121.37,15.6 122.88,17.11 122.88,18.97L122.88,96.63C122.88,98.49 121.37,100 119.51,100C119.13,100 118.76,99.94 118.42,99.82C109.02,97.13 99.68,95.34 90.43,95.28C81.41,95.22 72.4,96.81 63.35,100.8C62.79,101.17 62.12,101.37 61.43,101.36C60.75,101.37 60.08,101.17 59.51,100.8C50.47,96.8 41.45,95.22 32.43,95.28C23.18,95.34 13.85,97.13 4.44,99.82C4.1,99.94 3.73,100 3.35,100C1.51,100.01 0,98.5 0,96.64L0,18.97C0,17.11 1.51,15.6 3.37,15.6L12.98,15.6L13.04,4.34C13.05,2.72 14.19,1.38 15.72,1.06C24.59,-0.79 35.37,-0.33 44.82,3.29C51.35,5.79 57.28,9.78 61.61,15.54C65.98,10.17 71.82,6.31 78.39,3.82C87.37,0.41 97.73,-0.41 107.48,1.02C109.16,1.26 110.36,2.71 110.36,4.35L110.36,15.6ZM68.13,91.82C75.58,89.48 83.02,88.52 90.46,88.56C99.07,88.61 107.62,90.02 116.14,92.22L116.14,22.35L110.37,22.35L110.37,77.57C110.37,79.43 108.86,80.94 107,80.94C106.73,80.94 106.47,80.91 106.22,80.85C98.84,79.69 91.69,80.65 84.71,83.14C79.09,85.15 73.57,88.15 68.13,91.82ZM58.12,85.25L58.12,22.46C54.59,16.23 48.88,12.06 42.43,9.59C35.12,6.79 26.91,6.16 19.75,7.18L19.37,73.99C27.18,73.71 34.82,74.7 42.01,77.05C47.73,78.91 53.15,81.64 58.12,85.25Z" style="fill:white;"/>
    </g>
</svg>
