<?xml version="1.0" encoding="UTF-8" standalone="no"?>
<!DOCTYPE svg PUBLIC "-//W3C//DTD SVG 1.1//EN" "http://www.w3.org/Graphics/SVG/1.1/DTD/svg11.dtd">
<svg width="100%" height="100%" viewBox="0 0 530 54" version="1.1"
    xmlns="http://www.w3.org/2000/svg" xmlns:xlink="http://www.w3.org/1999/xlink"
    xml:space="preserve" xmlns:serif="http://www.serif.com/"
    style="fill-rule:evenodd;clip-rule:evenodd;stroke-linejoin:round;stroke-miterlimit:2;">
    <g id="Artboard3" transform="matrix(1.14399,0,0,0.825617,-6.85845e-15,1.17327e-14)">
        <rect x="0" y="-0" width="462.988" height="65.044" style="fill:none;"/>
        <g transform="matrix(0.620719,0,0,0.860079,-24.4548,-469.526)">
            <path d="M75.535,618.06C65.119,618.06 56.588,614.993 49.942,608.858C43.296,602.723 39.973,594.16 39.973,583.169C39.973,573.008 43.152,564.604 49.51,557.958C55.869,551.312 64.544,547.989 75.535,547.989C80.52,547.989 85.473,549.092 90.393,551.296C95.314,553.501 99.595,556.808 103.238,561.217L89.914,572.624C85.76,567.895 80.967,565.531 75.535,565.531C71.062,565.531 67.212,567.097 63.985,570.228C60.758,573.359 59.144,577.673 59.144,583.169C59.144,588.025 60.63,592.131 63.601,595.486C66.573,598.841 70.551,600.519 75.535,600.519C81.351,600.519 86.144,598.218 89.914,593.617L103.238,605.12C100.107,608.954 96.145,612.069 91.352,614.466C86.559,616.862 81.287,618.06 75.535,618.06Z" style="fill:rgb(243,243,243);fill-rule:nonzero;"/>
            <path d="M109.852,617.102L109.852,549.044L128.257,549.044L128.257,576.171L148.866,576.171L148.866,549.044L167.27,549.044L167.27,617.102L148.866,617.102L148.866,592.275L128.257,592.275L128.257,617.102L109.852,617.102Z" style="fill:rgb(243,243,243);fill-rule:nonzero;"/>
            <path d="M172.159,617.102L196.89,549.044L214.336,549.044L238.971,617.102L219.991,617.102L216.54,606.078L194.685,606.078L191.234,617.102L172.159,617.102ZM199.382,590.837L211.843,590.837L205.709,571.186L205.517,571.186L199.382,590.837Z" style="fill:rgb(243,243,243);fill-rule:nonzero;"/>
            <path d="M243.86,617.102L243.86,549.044L271.083,549.044C279.326,549.044 285.525,551.232 289.679,555.61C293.833,559.987 295.91,565.85 295.91,573.199C295.91,582.977 292.011,589.751 284.215,593.521L299.744,617.102L278.56,617.102L265.715,596.301L261.497,596.301L261.497,617.102L243.86,617.102ZM261.497,580.58L268.015,580.58C274.022,580.58 277.026,577.992 277.026,572.816C277.026,570.515 276.307,568.646 274.869,567.208C273.431,565.771 271.147,565.052 268.015,565.052L261.497,565.052L261.497,580.58Z" style="fill:rgb(243,243,243);fill-rule:nonzero;"/>
            <path d="M336.745,617.964C326.456,617.964 317.957,614.881 311.247,608.714C304.537,602.548 301.182,594.032 301.182,583.169C301.182,573.008 304.297,564.604 310.528,557.958C316.758,551.312 325.242,547.989 335.978,547.989C341.154,547.989 346.298,549.092 351.411,551.296C356.523,553.501 360.741,556.616 364.064,560.642L351.123,571.474C346.778,567.256 341.729,565.148 335.978,565.148C331.568,565.148 327.846,566.761 324.81,569.988C321.775,573.215 320.257,577.609 320.257,583.169C320.257,588.281 321.727,592.578 324.667,596.061C327.606,599.544 331.632,601.285 336.745,601.285C340.259,601.285 343.646,600.551 346.905,599.081L346.905,592.754L335.307,592.754L335.307,578.088L364.064,578.088L364.064,609.721C360.868,612.085 356.795,614.05 351.842,615.616C346.889,617.182 341.857,617.964 336.745,617.964Z" style="fill:rgb(243,243,243);fill-rule:nonzero;"/>
            <path d="M372.882,617.102L372.882,549.044L418.127,549.044L418.127,565.243L390.52,565.243L390.52,575.5L412.088,575.5L412.088,591.029L390.52,591.029L390.52,600.902L420.14,600.902L420.14,617.102L372.882,617.102Z" style="fill:rgb(243,243,243);fill-rule:nonzero;"/>
            <path d="M428,617.102L428,549.044L446.404,549.044L463.467,582.881L463.659,582.881L480.529,549.044L499.03,549.044L499.03,617.102L481.009,617.102L481.009,583.648L480.721,583.648L469.314,604.832L457.716,604.832L446.309,583.456L446.021,583.456L446.021,617.102L428,617.102Z" style="fill:rgb(243,243,243);fill-rule:nonzero;"/>
            <path d="M509.095,617.102L509.095,549.044L554.339,549.044L554.339,565.243L526.732,565.243L526.732,575.5L548.3,575.5L548.3,591.029L526.732,591.029L526.732,600.902L556.352,600.902L556.352,617.102L509.095,617.102Z" style="fill:rgb(243,243,243);fill-rule:nonzero;"/>
            <path d="M564.212,617.102L564.212,549.044L581.562,549.044L605.622,587.578L605.814,587.482L605.814,549.044L623.739,549.044L623.739,617.102L605.814,617.102L582.233,579.814L582.041,579.814L582.041,617.102L564.212,617.102Z" style="fill:rgb(243,243,243);fill-rule:nonzero;"/>
            <path d="M647.511,617.102L647.511,565.243L630.545,565.243L630.545,549.044L683.17,549.044L683.17,565.243L666.204,565.243L666.204,617.102L647.511,617.102Z" style="fill:rgb(243,243,243);fill-rule:nonzero;"/>
        </g>
        <g transform="matrix(0.874134,0,0,1.21122,-8.20702,-942.207)">
            <circle cx="475.797" cy="822.087" r="7.73" style="fill:rgb(243,243,243);"><animate
                    attributeName="opacity"
                    dur="1s"
                    values="0;1;0"
                    repeatCount="indefinite"
                    begin="0.1"/></circle>
        </g>
        <g transform="matrix(0.874134,0,0,1.21122,13.2182,-942.207)">
            <circle cx="475.797" cy="822.087" r="7.73" style="fill:rgb(243,243,243);"><animate
                    attributeName="opacity"
                    dur="1s"
                    values="0;1;0"
                    repeatCount="indefinite"
                    begin="0.2"/></circle>
        </g>
        <g transform="matrix(0.874134,0,0,1.21122,34.4943,-942.207)">
            <circle cx="475.797" cy="822.087" r="7.73" style="fill:rgb(243,243,243);"><animate
                    attributeName="opacity"
                    dur="1s"
                    values="0;1;0"
                    repeatCount="indefinite"
                    begin="0.3"/></circle>
        </g>
    </g>
</svg>