<?xml version="1.0" encoding="UTF-8" standalone="no"?>
<!DOCTYPE svg PUBLIC "-//W3C//DTD SVG 1.1//EN" "http://www.w3.org/Graphics/SVG/1.1/DTD/svg11.dtd">
<svg width="100%" height="100%" viewBox="0 0 583 609" version="1.1" xmlns="http://www.w3.org/2000/svg" xmlns:xlink="http://www.w3.org/1999/xlink" xml:space="preserve" xmlns:serif="http://www.serif.com/" style="fill-rule:evenodd;clip-rule:evenodd;stroke-linejoin:round;stroke-miterlimit:2;">
    <g id="Artboard2" transform="matrix(1.07884,0,0,1.22054,-26.344,-3.46898e-13)">
        <rect x="24.419" y="0" width="539.71" height="498.254" style="fill:none;"/>
        <g transform="matrix(1.02589,0,0,0.906791,-226.312,-259.389)">
            <g>
                <path d="M527.995,421.002C542.164,421.147 552.873,419.914 562.78,434.23C565.11,437.6 566.31,440.94 566.37,444.25C566.56,454.92 566.64,465.6 566.6,476.27C566.57,485.58 566.99,492.22 567.85,496.17C573.6,522.48 599.42,539.39 624.96,542.27C627.74,542.58 634.4,542.83 644.94,543C659.07,543.23 675,543.3 692.75,543.23C719.66,543.12 743.09,550.86 756.28,575.47C756.45,575.79 756.36,575.92 756,575.86C733.74,572.39 712.53,563.56 690.62,563.52C672.41,563.49 654.21,563.48 636,563.51C591.81,563.57 549.6,535.3 547.12,488.65C547.09,488.05 546.59,487.58 545.98,487.57C524.91,487.42 503.75,487.29 482.5,487.2C481.69,487.19 480.18,487.31 477.99,487.55C477.67,487.59 477.5,487.77 477.49,488.08C475.21,534.65 436.93,560.79 393.18,563.19C384.39,563.67 363.08,563.75 329.25,563.44C319.02,563.34 307.93,566.87 297.94,569.43C291.95,570.96 282.25,572.47 268.85,573.95C268.56,573.98 268.47,573.86 268.58,573.59C274.05,560.7 289.03,550.54 301.49,546.72C310.39,544 319.8,543.31 330.34,543.2C349.56,543 368.78,542.92 388,542.95C416.42,542.99 448.77,528.85 456.31,497.87C457.24,494.04 457.71,487.71 457.71,478.87C457.72,469.76 457.76,460.64 457.84,451.52C457.96,438.02 462.09,427.01 475.98,422.65C482.282,420.68 491.229,420.959 498.927,420.972C499.377,420.972 527.996,421.004 527.995,421.002ZM498.927,420.972C499.248,419.509 499.622,345.464 499.582,304.786C499.572,294.849 503.782,287.841 514.282,286.051L550.542,286.051C559.542,287.051 563.112,292.709 563.562,301.497C564.302,315.922 562.392,324.54 546.032,324.53C540.162,324.52 534.262,324.53 528.352,324.55C528.022,324.55 527.852,324.719 527.852,325.049C527.852,325.049 527.689,420.483 527.995,421.002C526.576,420.988 499.405,420.97 498.927,420.972ZM550.301,291.012C553.182,300.258 553.191,311.672 550.418,319.713C560.004,318.537 560.923,291.932 550.301,291.012ZM478.51,466.75L546.31,466.75C546.7,466.75 547.02,466.43 547.02,466.04L547.02,448.75C547.02,444.7 544,441.41 540.28,441.41L484.54,441.41C480.82,441.41 477.8,444.7 477.8,448.75L477.8,466.04C477.8,466.43 478.12,466.75 478.51,466.75Z" style="fill:rgb(255,208,107);"/>
                <path d="M713.08,609.3L712.73,735.78C712.73,736.09 712.98,736.34 713.29,736.33L732.77,735.99C733.04,735.99 733.3,736.04 733.55,736.15C734.57,736.61 735.01,735.62 735.01,734.75C734.98,692.93 734.98,651.1 735.01,609.26C735.01,608.87 735.2,608.68 735.59,608.69L753.79,608.91C754.43,608.92 754.75,608.6 754.75,607.96L754.75,588.6C754.75,588.24 754.46,587.95 754.1,587.95L692.21,588.32C691.9,588.32 691.75,588.48 691.75,588.79L691.75,608.1C691.75,608.5 691.95,608.7 692.35,608.71L712.55,608.77C712.9,608.77 713.08,608.95 713.08,609.3Z" style="fill:rgb(255,208,107);"/>
                <path d="M583.52,707.23C583.49,706.91 583.31,706.75 582.98,706.75L563.16,706.75C562.76,706.75 562.54,706.95 562.5,707.34L559.5,735.77C559.47,736.09 559.29,736.25 558.96,736.25L539.01,736.25C538.21,736.25 537.87,735.85 537.99,735.06L559.97,588.86C560.01,588.6 560.16,588.47 560.42,588.47L586.71,588.09C587.1,588.09 587.43,588.37 587.49,588.75C594.47,631.74 600.79,674.91 606.46,718.27C607.05,722.73 608.25,729.74 608.66,735.57C608.69,736.02 608.47,736.25 608.02,736.25L587.02,736.25C586.74,736.25 586.51,736.04 586.48,735.77L583.52,707.23ZM573.5,620.46C572.02,620.12 571.88,625.1 571.79,626C569.92,645.61 567.86,665.21 565.6,684.78C565.57,685.09 565.71,685.25 566.03,685.25L580.84,685.25C581.14,685.25 581.38,684.98 581.34,684.68L573.89,620.89C573.87,620.68 573.71,620.51 573.5,620.46Z" style="fill:rgb(255,208,107);"/>
                <path d="M365.21,706.75C364.86,706.75 364.66,706.93 364.61,707.28L361.3,735.63C361.27,735.88 361.13,736 360.88,736.01L340.96,736.11C340.73,736.12 340.63,736.01 340.66,735.78C346.92,686.68 354.22,637.77 361.2,588.83C361.29,588.22 361.81,587.76 362.43,587.77L388.21,588.08C388.56,588.09 388.76,588.26 388.81,588.61L410.64,734.99C410.71,735.5 410.5,735.75 409.99,735.75L388.23,735.75C387.92,735.75 387.66,735.52 387.63,735.22L384.21,707.32C384.16,706.94 383.95,706.75 383.56,706.75L365.21,706.75ZM366.87,684.84L380.7,685.06C381.25,685.07 381.68,684.6 381.63,684.06C379.7,665.19 377.64,646.77 375.45,628.81C375.13,626.2 374.68,623.59 374.09,620.98C373.91,620.19 373.77,620.2 373.68,621L366.24,684.12C366.19,684.59 366.4,684.83 366.87,684.84Z" style="fill:rgb(255,208,107);"/>
                <path d="M269.85,735.86C269.25,735.84 268.78,735.36 268.78,734.76L268.72,587.98C268.72,587.59 269.04,587.28 269.42,587.29C279.88,587.51 290.49,587.64 301.24,587.68C305.51,587.69 308.81,588.14 311.14,589.02C323.14,593.56 328.39,606.11 329.06,618.45C329.7,630.2 331.57,641.79 323.21,650.48C320.82,652.97 319.94,654.9 319.41,658C319.35,658.33 319.47,658.67 319.72,658.9C324.61,663.39 328.4,667.02 329.24,673.75C331.22,689.68 334.96,728.32 314.27,734.99C311.84,735.78 306.16,736.19 297.25,736.23C288.09,736.27 278.96,736.15 269.85,735.86ZM305.7,670.37C302.95,667.56 294.84,668.25 291.25,668.68C290.93,668.72 290.77,668.9 290.77,669.22L290.7,716.04C290.7,716.24 290.87,716.4 291.07,716.4C297.89,716.31 307.53,718.01 307.63,707.74C307.73,697.25 309.1,673.84 305.7,670.37ZM290.46,609.27L290.52,645.49C290.52,645.8 290.77,646.04 291.07,646.04L299.88,646.03C304.11,646.02 307.54,642.01 307.53,637.08L307.49,617.64C307.48,612.7 304.05,608.7 299.82,608.71L291.01,608.72C290.7,608.72 290.46,608.97 290.46,609.27Z" style="fill:rgb(255,208,107);"/>
                <path d="M482.29,735.36C482.29,735.71 482.57,735.99 482.92,735.99L528.62,736C528.97,736 529.25,735.72 529.25,735.37L529.25,715.13C529.25,714.78 528.97,714.5 528.62,714.5L504.86,714.5C504.51,714.5 504.23,714.22 504.23,713.87L504.26,588.88C504.26,588.53 503.98,588.25 503.63,588.25L482.25,588.25C481.9,588.25 481.62,588.53 481.62,588.88L482.29,735.36Z" style="fill:rgb(255,208,107);"/>
                <path d="M631.94,730.81C646.18,742.04 670.1,739.72 680.02,724.27C693.64,703.04 681.53,680.19 667.72,662.52C659.5,652.01 651.55,641.3 643.88,630.39C640.53,625.62 639.39,621.41 640.23,615.94C641.17,609.89 646.54,606.54 652.28,608.76C658.48,611.15 661.59,617.79 661.69,624.26C661.71,625.67 661.84,627.12 662.08,628.63C662.14,629 662.36,629.18 662.73,629.19L682.06,629.56C682.53,629.57 682.76,629.34 682.77,628.87C682.9,613.7 678.61,596.48 664.33,589.4C649.53,582.07 630.46,586.66 622.02,601.29C612.98,616.94 619.52,636.3 629.4,649.84C637.07,660.34 644.71,670.85 652.33,681.38C658.16,689.43 666.56,701.43 661.2,711.4C659.15,715.22 656.23,717.01 652.44,716.77C639.85,715.96 640.38,700.54 640,690.81C639.99,690.47 639.81,690.3 639.47,690.29L619.02,689.93C618.59,689.92 618.22,690.25 618.19,690.68C617.05,704.96 620.12,721.5 631.94,730.81Z" style="fill:rgb(255,208,107);"/>
                <path d="M445.71,714.98L445.67,588.83C445.67,588.51 445.41,588.25 445.08,588.25L424,588.25C423.67,588.25 423.5,588.42 423.5,588.75L423.5,683.88C423.5,684.09 423.46,684.28 423.38,684.47C423.31,684.64 423.27,684.82 423.27,685.02C423.5,701.87 423.57,718.78 423.47,735.73C423.47,736.06 423.63,736.22 423.96,736.22L470.54,735.92C470.85,735.92 471,735.77 471,735.46L471,716C471,715.67 470.83,715.5 470.5,715.5L446.23,715.5C445.88,715.5 445.71,715.33 445.71,714.98Z" style="fill:rgb(255,208,107);"/>
            </g>
        </g>
        <g transform="matrix(0.522119,0,0,0.461504,10.8993,173.47)">
            <path d="M44.596,617.102L44.596,556.599L65.729,556.599C72.489,556.599 77.517,558.304 80.812,561.712C84.107,565.121 85.755,569.666 85.755,575.347C85.755,581.539 83.837,586.197 80.003,589.322C76.168,592.446 70.984,594.009 64.451,594.009L52.01,594.009L52.01,617.102L44.596,617.102ZM52.01,587.277L63.769,587.277C68.598,587.277 72.191,586.183 74.549,583.996C76.906,581.809 78.085,578.869 78.085,575.176C78.085,571.37 76.921,568.444 74.591,566.399C72.262,564.354 69.052,563.331 64.962,563.331L52.01,563.331L52.01,587.277Z" style="fill:white;fill-rule:nonzero;"/>
            <rect x="96.321" y="554.384" width="6.902" height="62.718" style="fill:white;fill-rule:nonzero;"/>
            <path d="M135.52,617.613C129.157,617.613 123.987,615.596 120.011,611.563C116.034,607.529 114.046,602.473 114.046,596.395C114.046,590.316 116.034,585.246 120.011,581.184C123.987,577.122 129.157,575.091 135.52,575.091C141.712,575.091 146.825,577.079 150.859,581.056C154.892,585.033 156.909,590.146 156.909,596.395C156.909,602.644 154.892,607.742 150.859,611.691C146.825,615.639 141.712,617.613 135.52,617.613ZM135.52,611.307C139.553,611.307 142.948,609.915 145.703,607.132C148.458,604.348 149.836,600.769 149.836,596.395C149.836,592.02 148.458,588.427 145.703,585.615C142.948,582.803 139.553,581.397 135.52,581.397C131.259,581.397 127.794,582.845 125.124,585.743C122.454,588.64 121.119,592.191 121.119,596.395C121.119,600.599 122.468,604.135 125.166,607.004C127.865,609.873 131.316,611.307 135.52,611.307Z" style="fill:white;fill-rule:nonzero;"/>
            <path d="M167.22,617.102L167.22,575.602L174.122,575.602L174.122,583.101L174.207,583.101C177.673,577.761 182.7,575.091 189.29,575.091C193.892,575.091 197.528,576.554 200.198,579.48C202.868,582.405 204.203,586.737 204.203,592.475L204.203,617.102L197.3,617.102L197.3,594.435C197.3,585.743 193.892,581.397 187.075,581.397C183.098,581.397 179.945,582.732 177.616,585.402C175.287,588.072 174.122,591.736 174.122,596.395L174.122,617.102L167.22,617.102Z" style="fill:white;fill-rule:nonzero;"/>
            <path d="M234.624,634.486C228.375,634.486 222.751,632.98 217.752,629.969L219.456,623.834C224.512,626.731 229.483,628.18 234.369,628.18C238.857,628.18 242.294,627.029 244.68,624.728C247.066,622.428 248.259,619.431 248.259,615.738L248.259,609.092L248.088,609.092C244.737,613.92 239.936,616.335 233.687,616.335C227.949,616.335 223.163,614.432 219.328,610.625C215.494,606.819 213.576,601.877 213.576,595.798C213.576,589.833 215.437,584.891 219.158,580.971C222.879,577.051 227.637,575.091 233.431,575.091C239.624,575.091 244.481,577.477 248.003,582.249L248.174,582.249L248.174,575.602L255.076,575.602L255.076,614.034C255.076,620.34 253.4,625.325 250.048,628.989C246.697,632.653 241.555,634.486 234.624,634.486ZM234.539,609.944C238.686,609.944 242.038,608.58 244.595,605.853C247.151,603.127 248.429,599.661 248.429,595.457C248.429,591.367 247.108,588.015 244.467,585.402C241.825,582.789 238.544,581.482 234.624,581.482C230.477,581.482 227.097,582.817 224.484,585.487C221.871,588.157 220.564,591.537 220.564,595.628C220.564,599.945 221.885,603.411 224.527,606.024C227.168,608.637 230.506,609.944 234.539,609.944Z" style="fill:white;fill-rule:nonzero;"/>
            <path d="M304.33,595.628C304.33,596.025 304.302,596.565 304.245,597.247C304.188,597.928 304.16,598.326 304.16,598.44L271.778,598.44C272.233,602.36 273.738,605.484 276.294,607.813C278.851,610.143 282.089,611.307 286.009,611.307C291.008,611.307 295.013,609.461 298.024,605.768L302.881,609.859C298.848,615.028 293.139,617.613 285.753,617.613C279.561,617.613 274.519,615.653 270.628,611.733C266.736,607.813 264.79,602.701 264.79,596.395C264.79,590.146 266.708,585.033 270.542,581.056C274.377,577.079 279.277,575.091 285.242,575.091C290.866,575.091 295.454,577.022 299.004,580.886C302.555,584.749 304.33,589.663 304.33,595.628ZM293.423,584.55C291.264,582.448 288.509,581.397 285.157,581.397C281.805,581.397 278.922,582.419 276.507,584.465C274.093,586.51 272.573,589.293 271.949,592.816L297.428,592.816C296.916,589.35 295.581,586.595 293.423,584.55Z" style="fill:white;fill-rule:nonzero;"/>
            <path d="M310.551,617.102L310.551,612.074L334.666,581.823L334.581,581.567L311.829,581.567L311.829,575.602L344.125,575.602L344.125,580.545L319.924,611.052L320.01,611.137L344.125,611.137L344.125,617.102L310.551,617.102Z" style="fill:white;fill-rule:nonzero;"/>
            <path d="M394.913,617.613C389.062,617.613 384.205,615.667 380.342,611.776C376.478,607.884 374.547,602.843 374.547,596.65C374.547,590.515 376.478,585.388 380.342,581.269C384.205,577.15 389.033,575.091 394.828,575.091C401.418,575.091 406.36,577.733 409.655,583.016L409.741,583.016L409.741,554.384L416.643,554.384L416.643,617.102L409.996,617.102L409.996,609.432L409.911,609.432C406.673,614.886 401.674,617.613 394.913,617.613ZM395.851,611.307C399.827,611.307 403.179,609.944 405.906,607.217C408.633,604.49 409.996,600.968 409.996,596.65C409.996,592.333 408.675,588.711 406.034,585.785C403.392,582.86 400.026,581.397 395.936,581.397C391.902,581.397 388.508,582.817 385.753,585.658C382.997,588.498 381.62,592.162 381.62,596.65C381.62,600.854 382.941,604.348 385.582,607.132C388.224,609.915 391.647,611.307 395.851,611.307Z" style="fill:white;fill-rule:nonzero;"/>
            <path d="M446.979,617.613C441.185,617.613 436.37,615.667 432.536,611.776C428.701,607.884 426.784,602.843 426.784,596.65C426.784,590.458 428.687,585.317 432.493,581.226C436.299,577.136 441.128,575.091 446.979,575.091C450.047,575.091 452.859,575.787 455.416,577.179C457.972,578.571 459.989,580.516 461.466,583.016L461.636,582.931L461.636,575.602L468.539,575.602L468.539,617.102L461.892,617.102L461.892,609.603L461.807,609.603C458.569,614.943 453.626,617.613 446.979,617.613ZM448.002,611.307C451.922,611.307 455.217,609.944 457.887,607.217C460.557,604.49 461.892,600.968 461.892,596.65C461.892,592.333 460.585,588.711 457.972,585.785C455.359,582.86 452.035,581.397 448.002,581.397C443.968,581.397 440.588,582.817 437.861,585.658C435.135,588.498 433.771,592.162 433.771,596.65C433.771,600.854 435.092,604.348 437.734,607.132C440.375,609.915 443.798,611.307 448.002,611.307Z" style="fill:white;fill-rule:nonzero;"/>
            <path d="M480.98,617.102L480.98,575.602L487.882,575.602L487.882,583.101L487.968,583.101C491.433,577.761 496.461,575.091 503.051,575.091C507.652,575.091 511.288,576.554 513.958,579.48C516.628,582.405 517.963,586.737 517.963,592.475L517.963,617.102L511.061,617.102L511.061,594.435C511.061,585.743 507.652,581.397 500.835,581.397C496.858,581.397 493.705,582.732 491.376,585.402C489.047,588.072 487.882,591.736 487.882,596.395L487.882,617.102L480.98,617.102Z" style="fill:white;fill-rule:nonzero;"/>
            <path d="M542.59,617.613C536.284,617.613 530.887,615.653 526.399,611.733L529.893,606.45C533.359,609.802 537.591,611.478 542.59,611.478C545.033,611.478 546.965,610.952 548.385,609.901C549.805,608.85 550.515,607.501 550.515,605.853C550.515,603.979 549.237,602.445 546.681,601.252C545.999,600.968 543.982,600.201 540.63,598.951C538.642,598.269 537.023,597.616 535.773,596.991C534.523,596.366 533.259,595.571 531.981,594.605C530.703,593.639 529.751,592.461 529.126,591.069C528.501,589.677 528.189,588.072 528.189,586.254C528.189,583.073 529.481,580.417 532.066,578.287C534.651,576.156 537.903,575.091 541.823,575.091C547.163,575.091 551.935,576.795 556.139,580.204L552.56,585.658C549.379,582.703 545.715,581.226 541.568,581.226C539.863,581.226 538.372,581.681 537.094,582.59C535.816,583.499 535.177,584.72 535.177,586.254C535.177,587.731 535.83,588.938 537.136,589.876C538.443,590.813 540.403,591.765 543.016,592.73C548.413,594.832 551.765,596.281 553.072,597.076C556.083,599.065 557.56,601.962 557.503,605.768C557.503,609.177 556.21,612.003 553.626,614.247C551.041,616.491 547.362,617.613 542.59,617.613Z" style="fill:white;fill-rule:nonzero;"/>
            <rect x="590.992" y="554.384" width="6.902" height="62.718" style="fill:white;fill-rule:nonzero;"/>
            <path d="M608.12,577.136L610.932,556.599L618.346,556.599L613.744,577.136L608.12,577.136Z" style="fill:white;fill-rule:nonzero;"/>
            <rect x="629.509" y="556.599" width="7.414" height="60.502" style="fill:white;fill-rule:nonzero;"/>
            <path d="M651.324,617.102L651.324,575.602L658.226,575.602L658.226,583.101L658.312,583.101C659.902,580.602 661.919,578.642 664.362,577.221C666.805,575.801 669.418,575.091 672.202,575.091C678.564,575.091 682.854,578.045 685.069,583.953L685.154,583.953C686.745,581.17 688.875,578.997 691.545,577.434C694.215,575.872 697.17,575.091 700.408,575.091C705.009,575.091 708.546,576.639 711.017,579.735C713.488,582.831 714.724,587.333 714.724,593.242L714.724,617.102L707.821,617.102L707.821,595.116C707.821,585.97 704.668,581.397 698.363,581.397C695.011,581.397 692.227,582.774 690.012,585.53C687.796,588.285 686.688,591.935 686.688,596.48L686.688,617.102L679.786,617.102L679.786,595.116C679.786,590.685 678.962,587.291 677.315,584.933C675.667,582.576 673.281,581.397 670.157,581.397C666.691,581.397 663.836,582.774 661.592,585.53C659.348,588.285 658.226,591.935 658.226,596.48L658.226,617.102L651.324,617.102Z" style="fill:white;fill-rule:nonzero;"/>
            <path d="M744.208,617.613C738.413,617.613 733.599,615.667 729.764,611.776C725.93,607.884 724.012,602.843 724.012,596.65C724.012,590.458 725.915,585.317 729.722,581.226C733.528,577.136 738.357,575.091 744.208,575.091C747.276,575.091 750.088,575.787 752.644,577.179C755.201,578.571 757.217,580.516 758.695,583.016L758.865,582.931L758.865,575.602L765.767,575.602L765.767,617.102L759.121,617.102L759.121,609.603L759.035,609.603C755.797,614.943 750.855,617.613 744.208,617.613ZM745.231,611.307C749.151,611.307 752.445,609.944 755.116,607.217C757.786,604.49 759.121,600.968 759.121,596.65C759.121,592.333 757.814,588.711 755.201,585.785C752.588,582.86 749.264,581.397 745.231,581.397C741.197,581.397 737.817,582.817 735.09,585.658C732.363,588.498 731,592.162 731,596.65C731,600.854 732.321,604.348 734.962,607.132C737.604,609.915 741.027,611.307 745.231,611.307Z" style="fill:white;fill-rule:nonzero;"/>
            <path d="M796.53,634.486C790.281,634.486 784.657,632.98 779.657,629.969L781.362,623.834C786.418,626.731 791.389,628.18 796.274,628.18C800.762,628.18 804.199,627.029 806.585,624.728C808.971,622.428 810.164,619.431 810.164,615.738L810.164,609.092L809.994,609.092C806.642,613.92 801.842,616.335 795.592,616.335C789.855,616.335 785.068,614.432 781.234,610.625C777.399,606.819 775.482,601.877 775.482,595.798C775.482,589.833 777.342,584.891 781.063,580.971C784.784,577.051 789.542,575.091 795.337,575.091C801.529,575.091 806.386,577.477 809.909,582.249L810.079,582.249L810.079,575.602L816.981,575.602L816.981,614.034C816.981,620.34 815.305,625.325 811.954,628.989C808.602,632.653 803.461,634.486 796.53,634.486ZM796.445,609.944C800.592,609.944 803.944,608.58 806.5,605.853C809.056,603.127 810.335,599.661 810.335,595.457C810.335,591.367 809.014,588.015 806.372,585.402C803.73,582.789 800.45,581.482 796.53,581.482C792.383,581.482 789.003,582.817 786.389,585.487C783.776,588.157 782.469,591.537 782.469,595.628C782.469,599.945 783.79,603.411 786.432,606.024C789.074,608.637 792.411,609.944 796.445,609.944Z" style="fill:white;fill-rule:nonzero;"/>
            <path d="M836.922,566.57C835.956,567.535 834.763,568.018 833.343,568.018C831.922,568.018 830.729,567.535 829.764,566.57C828.798,565.604 828.315,564.439 828.315,563.076C828.315,561.712 828.798,560.548 829.764,559.582C830.729,558.616 831.922,558.133 833.343,558.133C834.763,558.133 835.956,558.616 836.922,559.582C837.887,560.548 838.37,561.712 838.37,563.076C838.37,564.439 837.887,565.604 836.922,566.57ZM829.849,617.102L829.849,575.602L836.751,575.602L836.751,617.102L829.849,617.102Z" style="fill:white;fill-rule:nonzero;"/>
            <path d="M850.215,617.102L850.215,575.602L857.117,575.602L857.117,583.101L857.203,583.101C860.668,577.761 865.696,575.091 872.286,575.091C876.887,575.091 880.523,576.554 883.193,579.48C885.863,582.405 887.198,586.737 887.198,592.475L887.198,617.102L880.296,617.102L880.296,594.435C880.296,585.743 876.887,581.397 870.07,581.397C866.093,581.397 862.94,582.732 860.611,585.402C858.282,588.072 857.117,591.736 857.117,596.395L857.117,617.102L850.215,617.102Z" style="fill:white;fill-rule:nonzero;"/>
            <path d="M916.768,617.613C910.973,617.613 906.158,615.667 902.324,611.776C898.489,607.884 896.572,602.843 896.572,596.65C896.572,590.458 898.475,585.317 902.281,581.226C906.087,577.136 910.916,575.091 916.768,575.091C919.835,575.091 922.648,575.787 925.204,577.179C927.76,578.571 929.777,580.516 931.254,583.016L931.425,582.931L931.425,575.602L938.327,575.602L938.327,617.102L931.68,617.102L931.68,609.603L931.595,609.603C928.357,614.943 923.414,617.613 916.768,617.613ZM917.79,611.307C921.71,611.307 925.005,609.944 927.675,607.217C930.345,604.49 931.68,600.968 931.68,596.65C931.68,592.333 930.374,588.711 927.76,585.785C925.147,582.86 921.824,581.397 917.79,581.397C913.757,581.397 910.377,582.817 907.65,585.658C904.923,588.498 903.559,592.162 903.559,596.65C903.559,600.854 904.88,604.348 907.522,607.132C910.164,609.915 913.586,611.307 917.79,611.307Z" style="fill:white;fill-rule:nonzero;"/>
            <path d="M958.352,566.57C957.387,567.535 956.194,568.018 954.773,568.018C953.353,568.018 952.16,567.535 951.194,566.57C950.229,565.604 949.746,564.439 949.746,563.076C949.746,561.712 950.229,560.548 951.194,559.582C952.16,558.616 953.353,558.133 954.773,558.133C956.194,558.133 957.387,558.616 958.352,559.582C959.318,560.548 959.801,561.712 959.801,563.076C959.801,564.439 959.318,565.604 958.352,566.57ZM951.28,617.102L951.28,575.602L958.182,575.602L958.182,617.102L951.28,617.102Z" style="fill:white;fill-rule:nonzero;"/>
            <path d="M971.646,617.102L971.646,575.602L978.548,575.602L978.548,583.186L978.719,583.186C981.9,577.789 986.388,575.091 992.183,575.091C992.921,575.091 993.489,575.119 993.887,575.176L993.887,582.845C992.524,582.732 991.615,582.675 991.16,582.675C987.297,582.675 984.229,584.01 981.957,586.68C979.685,589.35 978.548,592.816 978.548,597.076L978.548,617.102L971.646,617.102Z" style="fill:white;fill-rule:nonzero;"/>
            <path d="M1037.26,595.628C1037.26,596.025 1037.23,596.565 1037.18,597.247C1037.12,597.928 1037.09,598.326 1037.09,598.44L1004.71,598.44C1005.16,602.36 1006.67,605.484 1009.23,607.813C1011.78,610.143 1015.02,611.307 1018.94,611.307C1023.94,611.307 1027.94,609.461 1030.95,605.768L1035.81,609.859C1031.78,615.028 1026.07,617.613 1018.68,617.613C1012.49,617.613 1007.45,615.653 1003.56,611.733C999.667,607.813 997.722,602.701 997.722,596.395C997.722,590.146 999.639,585.033 1003.47,581.056C1007.31,577.079 1012.21,575.091 1018.17,575.091C1023.8,575.091 1028.38,577.022 1031.93,580.886C1035.49,584.749 1037.26,589.663 1037.26,595.628ZM1026.35,584.55C1024.19,582.448 1021.44,581.397 1018.09,581.397C1014.74,581.397 1011.85,582.419 1009.44,584.465C1007.02,586.51 1005.5,589.293 1004.88,592.816L1030.36,592.816C1029.85,589.35 1028.51,586.595 1026.35,584.55Z" style="fill:white;fill-rule:nonzero;"/>
        </g>
    </g>
</svg>
