<?xml version="1.0" encoding="UTF-8" standalone="no"?>
<!DOCTYPE svg PUBLIC "-//W3C//DTD SVG 1.1//EN" "http://www.w3.org/Graphics/SVG/1.1/DTD/svg11.dtd">
<svg width="100%" height="100%" viewBox="0 0 540 499" version="1.1" xmlns="http://www.w3.org/2000/svg" xmlns:xlink="http://www.w3.org/1999/xlink" xml:space="preserve" xmlns:serif="http://www.serif.com/" style="fill-rule:evenodd;clip-rule:evenodd;stroke-linejoin:round;stroke-miterlimit:2;">
    <g transform="matrix(1,0,0,1,-24.4188,-2.84217e-13)">
        <rect id="Artboard2" x="24.419" y="0" width="539.71" height="498.254" style="fill:none;"/>
        <clipPath id="_clip1">
            <rect id="Artboard21" serif:id="Artboard2" x="24.419" y="0" width="539.71" height="498.254"/>
        </clipPath>
        <g clip-path="url(#_clip1)">
            <g transform="matrix(1.10677,0,0,1.10677,-272.575,-316.594)">
                <g>
                    <path d="M527.995,421.002C542.164,421.147 552.873,419.914 562.78,434.23C565.11,437.6 566.31,440.94 566.37,444.25C566.56,454.92 566.64,465.6 566.6,476.27C566.57,485.58 566.99,492.22 567.85,496.17C573.6,522.48 599.42,539.39 624.96,542.27C627.74,542.58 634.4,542.83 644.94,543C659.07,543.23 675,543.3 692.75,543.23C719.66,543.12 743.09,550.86 756.28,575.47C756.45,575.79 756.36,575.92 756,575.86C733.74,572.39 712.53,563.56 690.62,563.52C672.41,563.49 654.21,563.48 636,563.51C591.81,563.57 549.6,535.3 547.12,488.65C547.09,488.05 546.59,487.58 545.98,487.57C524.91,487.42 503.75,487.29 482.5,487.2C481.69,487.19 480.18,487.31 477.99,487.55C477.67,487.59 477.5,487.77 477.49,488.08C475.21,534.65 436.93,560.79 393.18,563.19C384.39,563.67 363.08,563.75 329.25,563.44C319.02,563.34 307.93,566.87 297.94,569.43C291.95,570.96 282.25,572.47 268.85,573.95C268.56,573.98 268.47,573.86 268.58,573.59C274.05,560.7 289.03,550.54 301.49,546.72C310.39,544 319.8,543.31 330.34,543.2C349.56,543 368.78,542.92 388,542.95C416.42,542.99 448.77,528.85 456.31,497.87C457.24,494.04 457.71,487.71 457.71,478.87C457.72,469.76 457.76,460.64 457.84,451.52C457.96,438.02 462.09,427.01 475.98,422.65C482.282,420.68 491.229,420.959 498.927,420.972C499.377,420.972 527.996,421.004 527.995,421.002ZM498.927,420.972C499.248,419.509 499.622,345.464 499.582,304.786C499.572,294.849 503.782,287.841 514.282,286.051L550.542,286.051C559.542,287.051 563.112,292.709 563.562,301.497C564.302,315.922 562.392,324.54 546.032,324.53C540.162,324.52 534.262,324.53 528.352,324.55C528.022,324.55 527.852,324.719 527.852,325.049C527.852,325.049 527.689,420.483 527.995,421.002C526.576,420.988 499.405,420.97 498.927,420.972ZM550.301,291.012C553.182,300.258 553.191,311.672 550.418,319.713C560.004,318.537 560.923,291.932 550.301,291.012ZM478.51,466.75L546.31,466.75C546.7,466.75 547.02,466.43 547.02,466.04L547.02,448.75C547.02,444.7 544,441.41 540.28,441.41L484.54,441.41C480.82,441.41 477.8,444.7 477.8,448.75L477.8,466.04C477.8,466.43 478.12,466.75 478.51,466.75Z" style="fill:white;"/>
                    <path d="M713.08,609.3L712.73,735.78C712.73,736.09 712.98,736.34 713.29,736.33L732.77,735.99C733.04,735.99 733.3,736.04 733.55,736.15C734.57,736.61 735.01,735.62 735.01,734.75C734.98,692.93 734.98,651.1 735.01,609.26C735.01,608.87 735.2,608.68 735.59,608.69L753.79,608.91C754.43,608.92 754.75,608.6 754.75,607.96L754.75,588.6C754.75,588.24 754.46,587.95 754.1,587.95L692.21,588.32C691.9,588.32 691.75,588.48 691.75,588.79L691.75,608.1C691.75,608.5 691.95,608.7 692.35,608.71L712.55,608.77C712.9,608.77 713.08,608.95 713.08,609.3Z" style="fill:white;"/>
                    <path d="M583.52,707.23C583.49,706.91 583.31,706.75 582.98,706.75L563.16,706.75C562.76,706.75 562.54,706.95 562.5,707.34L559.5,735.77C559.47,736.09 559.29,736.25 558.96,736.25L539.01,736.25C538.21,736.25 537.87,735.85 537.99,735.06L559.97,588.86C560.01,588.6 560.16,588.47 560.42,588.47L586.71,588.09C587.1,588.09 587.43,588.37 587.49,588.75C594.47,631.74 600.79,674.91 606.46,718.27C607.05,722.73 608.25,729.74 608.66,735.57C608.69,736.02 608.47,736.25 608.02,736.25L587.02,736.25C586.74,736.25 586.51,736.04 586.48,735.77L583.52,707.23ZM573.5,620.46C572.02,620.12 571.88,625.1 571.79,626C569.92,645.61 567.86,665.21 565.6,684.78C565.57,685.09 565.71,685.25 566.03,685.25L580.84,685.25C581.14,685.25 581.38,684.98 581.34,684.68L573.89,620.89C573.87,620.68 573.71,620.51 573.5,620.46Z" style="fill:white;"/>
                    <path d="M365.21,706.75C364.86,706.75 364.66,706.93 364.61,707.28L361.3,735.63C361.27,735.88 361.13,736 360.88,736.01L340.96,736.11C340.73,736.12 340.63,736.01 340.66,735.78C346.92,686.68 354.22,637.77 361.2,588.83C361.29,588.22 361.81,587.76 362.43,587.77L388.21,588.08C388.56,588.09 388.76,588.26 388.81,588.61L410.64,734.99C410.71,735.5 410.5,735.75 409.99,735.75L388.23,735.75C387.92,735.75 387.66,735.52 387.63,735.22L384.21,707.32C384.16,706.94 383.95,706.75 383.56,706.75L365.21,706.75ZM366.87,684.84L380.7,685.06C381.25,685.07 381.68,684.6 381.63,684.06C379.7,665.19 377.64,646.77 375.45,628.81C375.13,626.2 374.68,623.59 374.09,620.98C373.91,620.19 373.77,620.2 373.68,621L366.24,684.12C366.19,684.59 366.4,684.83 366.87,684.84Z" style="fill:white;"/>
                    <path d="M269.85,735.86C269.25,735.84 268.78,735.36 268.78,734.76L268.72,587.98C268.72,587.59 269.04,587.28 269.42,587.29C279.88,587.51 290.49,587.64 301.24,587.68C305.51,587.69 308.81,588.14 311.14,589.02C323.14,593.56 328.39,606.11 329.06,618.45C329.7,630.2 331.57,641.79 323.21,650.48C320.82,652.97 319.94,654.9 319.41,658C319.35,658.33 319.47,658.67 319.72,658.9C324.61,663.39 328.4,667.02 329.24,673.75C331.22,689.68 334.96,728.32 314.27,734.99C311.84,735.78 306.16,736.19 297.25,736.23C288.09,736.27 278.96,736.15 269.85,735.86ZM305.7,670.37C302.95,667.56 294.84,668.25 291.25,668.68C290.93,668.72 290.77,668.9 290.77,669.22L290.7,716.04C290.7,716.24 290.87,716.4 291.07,716.4C297.89,716.31 307.53,718.01 307.63,707.74C307.73,697.25 309.1,673.84 305.7,670.37ZM290.46,609.27L290.52,645.49C290.52,645.8 290.77,646.04 291.07,646.04L299.88,646.03C304.11,646.02 307.54,642.01 307.53,637.08L307.49,617.64C307.48,612.7 304.05,608.7 299.82,608.71L291.01,608.72C290.7,608.72 290.46,608.97 290.46,609.27Z" style="fill:white;"/>
                    <path d="M482.29,735.36C482.29,735.71 482.57,735.99 482.92,735.99L528.62,736C528.97,736 529.25,735.72 529.25,735.37L529.25,715.13C529.25,714.78 528.97,714.5 528.62,714.5L504.86,714.5C504.51,714.5 504.23,714.22 504.23,713.87L504.26,588.88C504.26,588.53 503.98,588.25 503.63,588.25L482.25,588.25C481.9,588.25 481.62,588.53 481.62,588.88L482.29,735.36Z" style="fill:white;"/>
                    <path d="M631.94,730.81C646.18,742.04 670.1,739.72 680.02,724.27C693.64,703.04 681.53,680.19 667.72,662.52C659.5,652.01 651.55,641.3 643.88,630.39C640.53,625.62 639.39,621.41 640.23,615.94C641.17,609.89 646.54,606.54 652.28,608.76C658.48,611.15 661.59,617.79 661.69,624.26C661.71,625.67 661.84,627.12 662.08,628.63C662.14,629 662.36,629.18 662.73,629.19L682.06,629.56C682.53,629.57 682.76,629.34 682.77,628.87C682.9,613.7 678.61,596.48 664.33,589.4C649.53,582.07 630.46,586.66 622.02,601.29C612.98,616.94 619.52,636.3 629.4,649.84C637.07,660.34 644.71,670.85 652.33,681.38C658.16,689.43 666.56,701.43 661.2,711.4C659.15,715.22 656.23,717.01 652.44,716.77C639.85,715.96 640.38,700.54 640,690.81C639.99,690.47 639.81,690.3 639.47,690.29L619.02,689.93C618.59,689.92 618.22,690.25 618.19,690.68C617.05,704.96 620.12,721.5 631.94,730.81Z" style="fill:white;"/>
                    <path d="M445.71,714.98L445.67,588.83C445.67,588.51 445.41,588.25 445.08,588.25L424,588.25C423.67,588.25 423.5,588.42 423.5,588.75L423.5,683.88C423.5,684.09 423.46,684.28 423.38,684.47C423.31,684.64 423.27,684.82 423.27,685.02C423.5,701.87 423.57,718.78 423.47,735.73C423.47,736.06 423.63,736.22 423.96,736.22L470.54,735.92C470.85,735.92 471,735.77 471,735.46L471,716C471,715.67 470.83,715.5 470.5,715.5L446.23,715.5C445.88,715.5 445.71,715.33 445.71,714.98Z" style="fill:white;"/>
                </g>
            </g>
        </g>
    </g>
</svg>
