<?xml version="1.0" encoding="UTF-8" standalone="no"?>
<!DOCTYPE svg PUBLIC "-//W3C//DTD SVG 1.1//EN" "http://www.w3.org/Graphics/SVG/1.1/DTD/svg11.dtd">
<svg width="100%" height="100%" viewBox="0 0 432 432" version="1.1" xmlns="http://www.w3.org/2000/svg" xmlns:xlink="http://www.w3.org/1999/xlink" xml:space="preserve" xmlns:serif="http://www.serif.com/" style="fill-rule:evenodd;clip-rule:evenodd;stroke-linejoin:round;stroke-miterlimit:2;">
    <g transform="matrix(1,0,0,1,-321.003,-190.806)">
        <rect id="Artboard1" x="321.003" y="190.806" width="431.08" height="431.08" style="fill:none;"/>
        <g>
            <clipPath id="_clip1">
                <rect x="321.003" y="190.806" width="431.08" height="431.08"/>
            </clipPath>
            <g clip-path="url(#_clip1)">
                <g transform="matrix(1.40004,0,0,1.40004,226.341,123.94)">
                    <path d="M176.036,348.894C113.263,329.444 67.614,270.892 67.614,201.761C67.614,116.766 136.619,47.76 221.615,47.76C306.61,47.76 375.616,116.766 375.616,201.761C375.616,284.92 309.561,352.772 227.103,355.666L227.023,355.665C226.483,354.75 226.77,186.646 226.77,186.646C226.77,186.065 227.069,185.765 227.651,185.765C238.061,185.73 248.454,185.712 258.794,185.73C287.612,185.748 290.976,170.568 289.673,145.158C288.88,129.679 282.592,119.712 266.738,117.951L202.867,117.951C184.371,121.103 176.955,133.447 176.973,150.951C177.034,213.557 176.539,321.03 176.036,348.894ZM266.314,126.69C285.024,128.31 283.406,175.174 266.519,177.245C271.405,163.081 271.389,142.976 266.314,126.69Z" style="fill:rgb(255,252,252);"/>
                </g>
            </g>
        </g>
    </g>
</svg>
