<?xml version="1.0" encoding="UTF-8" standalone="no"?>
<!DOCTYPE svg PUBLIC "-//W3C//DTD SVG 1.1//EN" "http://www.w3.org/Graphics/SVG/1.1/DTD/svg11.dtd">
<svg width="100%" height="100%" viewBox="0 0 527 516" version="1.1" xmlns="http://www.w3.org/2000/svg" xmlns:xlink="http://www.w3.org/1999/xlink" xml:space="preserve" xmlns:serif="http://www.serif.com/" style="fill-rule:evenodd;clip-rule:evenodd;stroke-linejoin:round;stroke-miterlimit:2;">
    <g transform="matrix(1,0,0,1,0,-0.77267)">
        <g transform="matrix(1,0,0,1,-60.6112,-79.224)">
            <rect id="Artboard1" x="60.611" y="79.997" width="526.362" height="515.698" style="fill:none;"/>
            <g id="Artboard11" serif:id="Artboard1">
                <g>
                    <g transform="matrix(1,0,0,1,-521.228,-22.8064)">
                        <path d="M690.87,406.32C690.692,404.277 691.726,366.651 691.54,366.5C691.367,353.167 691.097,339.833 690.73,326.5C690.34,312.28 700.29,299.61 715.07,299.56C735.957,299.48 756.877,299.467 777.83,299.52C778.178,299.52 778.515,299.396 778.78,299.17C807.553,273.93 836.59,248.957 865.89,224.25C872.03,219.06 877.19,222.09 877.22,229.73C877.28,248.023 877.28,266.317 877.22,284.61C877.22,284.977 877.48,284.35 877.22,284.61L877.107,331.103C914.203,366.204 888.681,382.018 877.072,396.515L876.685,504.534C875.948,508.372 873.122,509.001 869.346,508.173L784.714,430.619C784.474,430.866 731.777,430.423 731.43,430.43C722.737,430.59 716.76,430.53 713.5,430.25C700.08,429.09 691.99,419.3 690.87,406.32Z" style="fill:white;fill-rule:nonzero;stroke:black;stroke-width:3px;"/>
                    </g>
                    <g transform="matrix(1,0,0,1,11.3189,-23.0714)">
                        <path d="M395.05,456.74C387.31,459.89 378.44,452.06 380.85,444.11C381.343,442.483 382.857,440.177 385.39,437.19C419.91,396.53 417.22,328.88 384.45,288.02C382.577,285.673 381.433,283.793 381.02,282.38C379.41,276.9 382.29,271.33 387.55,269.33C395.41,266.36 400.94,273.11 405.23,279.23C438.96,327.33 442.74,400.31 404.79,448.02C402.26,451.19 398.67,455.26 395.05,456.74Z" style="fill:white;fill-rule:nonzero;stroke:black;stroke-width:3px;" visibility="visible">
                            <animate
                                attributeName="visibility"
                                values="hidden;visible;visible;visible;visible;"
                                dur="2s"
                                repeatCount="3"
                            />
                        </path>
                    </g>
                    <g transform="matrix(1,0,0,1,11.3619,-23.48)">
                        <path d="M430.94,493.06C417.66,500.54 404.46,484.93 414.74,472.31C436.107,446.07 448.65,416.203 452.37,382.71C457.27,338.63 443.43,291.25 414.49,257.26C402.08,242.7 423.35,224.98 436.37,241.4C493.52,313.53 495.56,414.93 437.06,487.31C435.59,489.13 433.18,491.8 430.94,493.06Z" style="fill:white;fill-rule:nonzero;stroke:black;stroke-width:3px;" visibility="visible">
                            <animate
                                attributeName="visibility"
                                values="hidden;hidden;visible;visible;visible;"
                                dur="2s"
                                repeatCount="3"
                            />
                        </path>
                    </g>
                </g>
            </g>
        </g>
    </g>
</svg>
