<?xml version="1.0" encoding="UTF-8" standalone="no"?>
<!DOCTYPE svg PUBLIC "-//W3C//DTD SVG 1.1//EN" "http://www.w3.org/Graphics/SVG/1.1/DTD/svg11.dtd">
<svg width="100%" height="100%" viewBox="0 0 527 516" version="1.1" xmlns="http://www.w3.org/2000/svg" xmlns:xlink="http://www.w3.org/1999/xlink" xml:space="preserve" xmlns:serif="http://www.serif.com/" style="fill-rule:evenodd;clip-rule:evenodd;stroke-linejoin:round;stroke-miterlimit:2;">
    <g transform="matrix(1,0,0,1,-619.719,0)">
        <g transform="matrix(1,0,0,1,559.108,-79.9967)">
            <g id="Artboard1">
                <g>
                    <g transform="matrix(0.707107,-0.707107,0.707107,0.707107,323.792,342.184)">
                        <path d="M224.2,-9.82C224.2,-18.794 216.914,-26.08 207.94,-26.08L-207.94,-26.08C-216.914,-26.08 -224.2,-18.794 -224.2,-9.82L-224.2,9.82C-224.2,18.794 -216.914,26.08 -207.94,26.08L207.94,26.08C216.914,26.08 224.2,18.794 224.2,9.82L224.2,-9.82Z" style="fill:white;stroke:black;stroke-width:3px;"/>
                    </g>
                    <g transform="matrix(1,0,0,1,-521.228,-22.8064)">
                        <path d="M690.87,406.32C690.692,404.277 691.726,366.651 691.54,366.5C691.367,353.167 691.097,339.833 690.73,326.5C690.34,312.28 700.29,299.61 715.07,299.56C735.957,299.48 756.877,299.467 777.83,299.52C778.178,299.52 778.515,299.396 778.78,299.17C807.553,273.93 836.59,248.957 865.89,224.25C872.03,219.06 877.19,222.09 877.22,229.73C877.28,248.023 877.28,266.317 877.22,284.61C877.22,284.977 877.09,285.29 876.83,285.55L732.31,430.05C732.07,430.297 731.777,430.423 731.43,430.43C722.737,430.59 716.76,430.53 713.5,430.25C700.08,429.09 691.99,419.3 690.87,406.32Z" style="fill:white;fill-rule:nonzero;stroke:black;stroke-width:3px;"/>
                    </g>
                    <g transform="matrix(1,0,0,1,-521.228,-22.8064)">
                        <path d="M953.17,494.32C946.01,492.06 941.45,485.21 943.97,477.77C944.537,476.09 946.077,473.663 948.59,470.49C989.57,418.65 997.39,349.9 968.29,290.28C968.143,289.967 968.19,289.69 968.43,289.45L987.52,270.33C987.813,270.043 988.06,270.08 988.26,270.44C1026.29,338.23 1019.23,426.5 969.6,487C965.06,492.53 960.19,496.54 953.17,494.32Z" style="fill:white;fill-rule:nonzero;stroke:black;stroke-width:3px;"/>
                    </g>
                    <g transform="matrix(1,0,0,1,-521.228,-22.8064)">
                        <path d="M942.29,369C943.061,369.197 942.249,349.504 941.79,350.5C940.697,341.113 938.7,331.89 935.8,322.83C935.68,322.457 935.76,322.133 936.04,321.86L952.01,305.79C952.079,305.722 952.172,305.684 952.269,305.684C952.418,305.684 952.552,305.773 952.61,305.91C971.24,351.8 968.82,411.62 934.93,450.54C932.05,453.847 929.573,455.89 927.5,456.67C919.13,459.82 910.74,451.92 913.51,443.43C914.03,441.85 915.463,439.737 917.81,437.09C934.11,418.73 942.01,393.27 942.29,369Z" style="fill:white;fill-rule:nonzero;stroke:black;stroke-width:3px;"/>
                    </g>
                    <g transform="matrix(1,0,0,1,-521.228,-22.8064)">
                        <path d="M804.97,452.69L895.05,362.63C895.503,362.183 895.717,362.277 895.69,362.91C895.177,376.83 889.173,387.587 877.68,395.18C877.38,395.38 877.23,395.663 877.23,396.03C877.283,451.263 877.283,486.333 877.23,501.24C877.2,507.45 871.68,510.61 866.64,506.37C845.913,488.97 825.367,471.36 805,453.54C804.687,453.267 804.677,452.983 804.97,452.69Z" style="fill:white;fill-rule:nonzero;stroke:black;stroke-width:3px;"/>
                    </g>
                </g>
            </g>
        </g>
    </g>
</svg>
