<?xml version="1.0" encoding="UTF-8" standalone="no"?>
<!DOCTYPE svg PUBLIC "-//W3C//DTD SVG 1.1//EN" "http://www.w3.org/Graphics/SVG/1.1/DTD/svg11.dtd">
<svg width="100%" height="100%" viewBox="0 0 527 516" version="1.1" xmlns="http://www.w3.org/2000/svg" xmlns:xlink="http://www.w3.org/1999/xlink" xml:space="preserve" xmlns:serif="http://www.serif.com/" style="fill-rule:evenodd;clip-rule:evenodd;stroke-linejoin:round;stroke-miterlimit:2;">
    <g transform="matrix(1.17226,0,0,1.17226,-122.36,-147.102)">
        <g>
            <rect id="Artboard1" x="60.611" y="79.997" width="526.362" height="515.698" style="fill:none;"/>
            <g id="Artboard11" serif:id="Artboard1">
                <g>
                    <g transform="matrix(1,0,0,1,-521.228,-22.8064)">
                        <path d="M690.87,406.32C690.692,404.277 689.286,372.715 689.1,372.564C688.927,359.231 691.097,339.833 690.73,326.5C690.34,312.28 695.473,294.611 710.253,294.561C731.14,294.481 756.877,299.467 777.83,299.52C778.178,299.52 778.503,299.381 778.78,299.17C810.101,275.251 870.685,214.876 897.729,189C903.869,183.81 900.606,217.453 900.636,225.093C900.696,243.386 900.696,261.68 900.636,279.973C900.636,280.34 900.896,279.713 900.636,279.973L900.523,326.466C937.619,361.567 915.911,382.188 904.302,396.685L900.101,499.897C899.364,503.735 901.121,532.67 897.345,531.842L782.718,425.915C782.478,426.162 731.777,430.423 731.43,430.43C722.737,430.59 716.76,430.53 713.5,430.25C700.08,429.09 691.99,419.3 690.87,406.32Z" style="fill:white;fill-rule:nonzero;stroke:black;stroke-width:8.1px;"/>
                    </g>
                    <g transform="matrix(1,0,0,1,23.8044,-24.4418)">
                        <path d="M395.05,456.74C387.31,459.89 378.44,452.06 380.85,444.11C381.343,442.483 382.857,440.177 385.39,437.19C408.061,410.487 417.096,371.539 407.275,337.391C402.381,320.375 395.698,302.045 384.45,288.02C382.577,285.673 381.433,283.793 381.02,282.38C379.41,276.9 382.29,271.33 387.55,269.33C395.41,266.36 400.365,273.557 405.23,279.23C446.543,327.407 446.315,400.41 404.79,448.02C402.26,451.19 398.67,455.26 395.05,456.74Z" style="fill:white;fill-rule:nonzero;stroke:black;stroke-width:5.12px;"/>
                    </g>
                    <g transform="matrix(1,0,0,1,25.6363,-25.7403)">
                        <path d="M421.882,514.751C408.602,522.231 395.402,506.621 405.682,494.001C427.049,467.761 455.788,395.562 459.508,362.069C464.408,317.989 426.815,259.231 397.875,225.241C385.465,210.681 406.859,199.58 419.879,216C426.534,224.4 460.867,265.772 464.564,275.407C492.31,347.727 486.181,369.875 470.999,409.799C461.462,434.879 445.744,487.05 428.002,509.001C426.532,510.821 424.122,513.491 421.882,514.751Z" style="fill:white;fill-rule:nonzero;stroke:black;stroke-width:5.12px;"/>
                    </g>
                </g>
            </g>
        </g>
    </g>
</svg>
