<?xml version="1.0" standalone="no"?>
<!DOCTYPE svg PUBLIC "-//W3C//DTD SVG 20010904//EN"
 "http://www.w3.org/TR/2001/REC-SVG-20010904/DTD/svg10.dtd">
<svg version="1.0" xmlns="http://www.w3.org/2000/svg"
 width="700.000000pt" height="700.000000pt" viewBox="0 0 700.000000 700.000000"
 preserveAspectRatio="xMidYMid meet">
<metadata>
Created by potrace 1.14, written by Peter Selinger 2001-2017
</metadata>
<g transform="translate(0.000000,700.000000) scale(0.100000,-0.100000)"
fill="#000000" stroke="none">
<path d="M3278 6996 c-1 -2 -39 -6 -83 -10 -99 -8 -164 -15 -190 -21 -11 -2
-42 -7 -70 -10 -78 -10 -269 -52 -388 -86 -968 -273 -1773 -952 -2207 -1863
-37 -77 -84 -186 -105 -241 -20 -55 -41 -109 -45 -120 -27 -63 -105 -352 -116
-425 -3 -19 -7 -43 -10 -52 -6 -21 -9 -38 -23 -123 -30 -198 -36 -278 -36
-540 1 -268 12 -411 50 -615 3 -14 7 -41 10 -60 3 -19 8 -43 11 -52 3 -9 7
-26 9 -39 23 -118 86 -323 150 -489 229 -590 595 -1085 1106 -1494 217 -174
545 -366 824 -481 77 -32 288 -106 292 -102 6 7 12 767 18 2487 6 1742 9 2150
18 2186 51 208 82 270 185 372 52 53 98 87 142 108 174 84 141 82 996 79 412
-1 763 -5 779 -9 17 -4 39 -10 50 -13 11 -4 26 -8 33 -9 42 -7 135 -67 187
-119 133 -133 178 -298 177 -651 -1 -298 -47 -451 -172 -574 -55 -54 -80 -70
-150 -98 -135 -53 -214 -60 -679 -61 -228 -1 -418 -4 -423 -7 -5 -3 -8 -851
-8 -1920 1 -1841 2 -1914 19 -1924 10 -5 20 -8 22 -6 2 2 51 7 109 11 131 8
145 10 310 36 212 33 580 136 715 199 11 5 49 21 85 36 246 100 571 295 815
491 138 110 429 398 510 504 263 344 382 542 520 864 72 169 163 455 191 600
2 11 6 31 9 45 3 14 9 50 15 80 6 30 12 64 14 75 3 17 11 79 22 160 17 138 22
500 10 677 -32 432 -170 916 -377 1313 -79 153 -215 375 -286 465 -176 226
-279 342 -449 501 -273 255 -658 507 -989 644 -49 21 -105 44 -123 52 -98 43
-445 144 -577 168 -16 2 -41 7 -55 9 -25 5 -203 30 -290 42 -48 6 -546 15
-552 10z"/>
<path d="M4514 5188 c35 -119 63 -276 73 -408 10 -138 4 -413 -10 -438 -3 -4
-7 -29 -11 -57 -6 -50 -43 -201 -53 -218 -7 -12 31 0 78 24 40 20 102 91 136
154 26 48 62 165 69 220 3 22 7 51 10 64 6 30 6 228 -1 261 -3 14 -8 41 -11
60 -26 157 -109 290 -209 336 -64 30 -79 31 -71 2z"/>
</g>
</svg>
